<?xml version="1.0" encoding="utf-8"?>
<!-- Generator: Adobe Illustrator 21.0.0, SVG Export Plug-In . SVG Version: 6.00 Build 0)  -->
<svg version="1.1"
	 id="svg2" xmlns:cc="http://creativecommons.org/ns#" xmlns:dc="http://purl.org/dc/elements/1.1/" xmlns:rdf="http://www.w3.org/1999/02/22-rdf-syntax-ns#" xmlns:svg="http://www.w3.org/2000/svg"
	 xmlns="http://www.w3.org/2000/svg" xmlns:xlink="http://www.w3.org/1999/xlink" x="0px" y="0px" viewBox="0 0 300 224.8"
	 style="enable-background:new 0 0 300 224.8;" xml:space="preserve">
<style type="text/css">
	.st0{fill:#E51636;}
	.st1{fill:#FFFFFF;}
	.st2{display:none;fill:#E51636;}
</style>
<g id="g10" transform="matrix(1.25,0,0,-1.25,122.00016,959.18319)">
	<g id="g4101" transform="matrix(2.5179667,0,0,2.5179667,148.15375,-891.76072)">
		<path id="path336" class="st0" d="M-97.6,623.2c0,19.7,21.3,35.7,47.7,35.7c26.3,0,47.7-16,47.7-35.7s-21.3-35.7-47.7-35.7
			C-76.3,587.5-97.6,603.5-97.6,623.2"/>
		<path id="path340" class="st1" d="M-40.5,615c0,4.6,3.5,8,8,8c1.8,0,3.4-0.4,4.7-1.3v-2.2c-1,0.7-2.5,1.4-4.7,1.4
			c-3.4,0-5.6-2.4-5.6-5.9c0-3.4,2.4-5.9,5.6-5.9c2,0,3.2,0.4,4.7,1.4v-2.2c-1.3-1-2.9-1.3-4.7-1.3C-37.2,607-40.5,610.5-40.5,615"
			/>
		<path id="path344" class="st1" d="M-25.2,622.6v-15.3h10.3v2.1H-23v4.7h7v2.1h-7v4.3h7.7v2.1L-25.2,622.6L-25.2,622.6z"/>
		<path id="path346" class="st1" d="M-45.3,607.3h2.2v15.3h-2.2V607.3L-45.3,607.3z"/>
		<path id="path350" class="st1" d="M-69.3,622.6v-15.3h2.2v6.5h6.5v2.1H-67v4.6h7.3v2.1H-69.3z"/>
		<path id="path354" class="st1" d="M-85.1,615c0,3.4,2.4,5.9,5.6,5.9c3.3,0,5.6-2.5,5.6-5.9c0-3.4-2.4-5.9-5.6-5.9
			C-82.7,609.1-85.1,611.6-85.1,615 M-87.4,615c0-4.6,3.4-8,8-8c4.5,0,8,3.5,8,8c0,4.6-3.4,8-8,8C-84,623-87.4,619.6-87.4,615"/>
		<path id="path358" class="st1" d="M-57.3,622.6v-15.3h2.2v6.5h6.5v2.1h-6.5v4.6h7.3v2.1H-57.3L-57.3,622.6z"/>
		<path id="path362" class="st1" d="M-44.8,638.7c0-3.4,2.4-4.1,4.5-4.8c1.6-0.5,3.1-1,3.1-2.5c0-1.5-1.6-2.3-3.1-2.3
			c-1.5,0-3.1,0.7-4.3,1.5l0-2.2c1.1-0.9,2.7-1.5,4.2-1.5c3.1,0,5.4,2,5.4,4.8c0,3-2.4,3.7-4.4,4.3c-1.7,0.5-3.2,1-3.2,2.7
			c0,0.8,0.7,2.2,2.9,2.2c1.2,0,2-0.2,3.5-1.1l0.2-0.1l0,2.2c-0.9,0.7-2.2,1.1-3.7,1.1C-43.3,643-44.8,640.4-44.8,638.7"/>
		<path id="path366" class="st1" d="M-34,642.7v-2.1h4.9v-13.2h2.2v13.2h4.9v2.1H-34z"/>
		<path id="path370" class="st1" d="M-59.9,635c0,3.4,2.4,5.9,5.6,5.9c3.2,0,5.6-2.5,5.6-5.9s-2.4-5.9-5.6-5.9
			C-57.5,629.1-59.9,631.6-59.9,635 M-62.3,635c0-4.6,3.4-8,8-8c4.5,0,8,3.5,8,8c0,4.6-3.4,8-8,8C-58.8,643-62.3,639.6-62.3,635"/>
		<path id="path374" class="st1" d="M-68.7,640.7c1.2,0,3.1-0.3,3.1-2.6c0-2.2-2-2.6-3.1-2.6h-2.8v5.1L-68.7,640.7L-68.7,640.7z
			 M-73.8,642.7v-15.3h2.2v6.2h3.2c4.6,0,4.9,3.5,4.9,4.6c0,1.1-0.4,4.5-4.9,4.5H-73.8"/>
		<path id="path378" class="st2" d="M-3,654.6c0-1-0.3-1.8-1-2.5c-0.7-0.7-1.5-1-2.5-1c-1,0-1.8,0.3-2.5,1c-0.7,0.7-1,1.5-1,2.5
			c0,1,0.3,1.8,1,2.5c0.7,0.7,1.5,1,2.5,1c1,0,1.8-0.3,2.5-1C-3.4,656.4-3,655.6-3,654.6 M-3.6,654.6c0,0.8-0.3,1.5-0.8,2.1
			c-0.6,0.6-1.3,0.9-2.1,0.9c-0.8,0-1.5-0.3-2.1-0.9c-0.6-0.6-0.8-1.3-0.9-2.1c0-0.8,0.3-1.5,0.9-2.1c0.6-0.6,1.2-0.9,2.1-0.9
			c0.8,0,1.5,0.3,2.1,0.9C-3.9,653.1-3.6,653.8-3.6,654.6 M-5,652.9h-0.7l-0.8,1.4c0,0-0.1,0-0.2,0c-0.1,0-0.2,0-0.2,0v-1.4h-0.6
			v3.5h0.8c0.9,0,1.4-0.3,1.4-1c0-0.4-0.2-0.7-0.5-0.9L-5,652.9L-5,652.9z M-6,655.3c0,0.3-0.2,0.5-0.7,0.5H-7v-1c0.1,0,0.2,0,0.3,0
			C-6.3,654.8-6,655-6,655.3"/>
	</g>
</g>
</svg>
