<?xml version="1.0" encoding="utf-8"?>
<!-- Generator: Adobe Illustrator 24.1.0, SVG Export Plug-In . SVG Version: 6.00 Build 0)  -->
<svg version="1.1" id="Layer_1" xmlns="http://www.w3.org/2000/svg" xmlns:xlink="http://www.w3.org/1999/xlink" x="0px" y="0px"
	 width="981.8px" height="860.8px" viewBox="0 0 981.8 860.8" enable-background="new 0 0 981.8 860.8" xml:space="preserve">
<g id="Layer_2_1_">
	<g id="Layer_1-2">
		<path d="M57.1,424.8c-51.9-24.3-63.8-43.5-54-89.8c4.8-22.6,20.2-36.6,43.2-35.4c19.9,1.1,39.5,7.7,60.7,12.2
			c11.7-28.5,25-57.1,35.3-86.7c16.1-46.6,41.7-82.2,93.7-91.3c6.7-1.2,13.9-2.8,20.3-1.6c27.2,5.1,34.1-6.6,31.2-32
			c-2.4-20.9-0.7-42.3-0.4-63.4c0.4-23.6,12.4-36.7,36.2-36.7c112.3-0.2,224.7-0.2,337,0c25.1,0.1,36.2,14.6,36.3,38.7
			c0.1,27.5,0.3,55-0.1,82.5c-0.1,8.4,2.5,11.3,10.9,10.8c65.1-3.9,109.7,22.6,131.2,86.3c10,29.8,23.7,58.4,35.7,87.5
			c0.9,2.1,2.1,4.1,3.7,7.3c14.7-4.2,29.2-8.4,43.7-12.4c31.2-8.8,59.9,12.7,60,45c0,21.6,2.4,43.7-13.2,62
			c-8.9,10.4-20.6,14.8-33.9,15.8c-14,1.1-16.8,10-12.9,21.3c15.8,45.5,26,91.7,25.4,140.4c-0.9,72.7-0.2,145.3-0.3,218
			c0,34.8-22.8,57.6-57.6,57.7c-20.2,0-40.3,0.1-60.5,0c-30.4-0.1-53.5-22.6-54.5-53c-0.1-1.8-0.1-3.7-0.1-5.5
			c-0.1-59.5-0.1-59.5-59.4-59.5c-168.8,0-337.6-0.1-506.5-0.2c-10,0-13,3-12.6,12.8c0.7,17.3,0.3,34.7,0.1,52
			c-0.3,29.9-23.6,53.2-53.5,53.5c-21,0.2-42,0.1-63,0c-29.8,0-55-18-54.9-47.5c0.1-100.7-8.7-201.6,5.4-301.9
			C34,481.4,43.7,452.5,57.1,424.8z M498.7,438h310.5c33.2,0,44.7-17.7,31.6-48.5c-24.9-58.8-49.2-117.8-74.8-176.3
			c-10.9-24.9-31.2-40.1-59-40.3c-139.2-0.5-278.3-0.5-417.5-0.1c-26.7,0.1-46.8,12.1-57.6,37.9c-25.6,61.2-51.1,122.4-77.4,183.3
			c-11,25.5,0.4,43.8,28.6,43.8C288.4,438,393.6,438,498.7,438z M227.9,653.9c23.7,0,47.3-0.1,71,0c15.8,0.1,23.4-7.2,23.2-23.1
			c-0.2-22.2-0.2-44.3,0-66.5c0.1-15.6-7.4-22.9-22.9-22.8c-46.8,0.2-93.6,0.1-140.4,0c-16.5,0-25.3,8.3-25.7,24.6
			c-0.4,21.3-0.1,42.7-0.1,64c0,16.6,8.4,24.1,25,23.8C181.3,653.7,204.6,654,227.9,653.9z M763.5,541.7c-24.8,0-49.6-0.1-74.5,0
			c-13.1,0.1-20.2,6.8-20.2,20.1c-0.1,23.8-0.1,47.6,0,71.4c0,13.4,7.1,20.5,20.4,20.6c49.1,0.2,98.3,0.2,147.4,0
			c13.6,0,20.5-7.4,20.5-21c0-23.3,0-46.6,0-70c0-14.3-7.2-21.2-21.2-21.2C811.7,541.7,787.6,541.7,763.5,541.7z M615.7,122.7
			c-40.6-25.3-38.4-55.3-7.1-85.9c-26.7-10.4-36.7,4-43.4,26.2c-13-18.8-27.6-27.4-49.8-20c19,26.9,42.4,54.4-1.9,79.7
			c28.2,11.2,39.7-6,51.4-25.3C576.8,116,587.4,134.1,615.7,122.7z M507.2,124.8c-9.2-23.9-17.8-46.8-26.8-69.4
			c-2.5-6.2-2.2-14.9-13.1-14.8c-11.8,0.1-22.1-1.4-27.2,14.1c-7.8,23.5-18.6,46-29.7,72.6c13.4-5,28.1,7.2,33.2-12.1
			c4.8-18.2,19.4-7.8,29.5-10.2c8.2-1.9,10.3,4.6,11.5,10.6C487.2,129,496.4,126.1,507.2,124.8L507.2,124.8z M362.8,55.9
			c0,21.7,0,41.8,0,61.9c0,4.1,0.5,7.3,5.8,8.1c21.1,3.1,36.1,0.2,30.6-27c-1.2-6.1,0.5-12.7-0.3-18.9c-2.1-16.6,0.4-28.3,21.5-24.2
			c4.9,0.9,5.7-3.3,5.8-7.3s-0.8-7.5-5.8-7.5c-26.5,0-53,0-79.5,0c-5.3,0-6.1,3.5-6,7.8s1,7.3,6,7.3
			C347.6,55.9,354.4,55.9,362.8,55.9z M656,83.3c0-11.7,0.2-23.3,0-35c-0.2-12.1-9.7-7-15.3-7.3c-5.3-0.3-13.8-3.8-13.8,7.3
			c0,23.3,0,46.7,0,70c0,3.5,0.3,6.9,4.8,7.4c14.9,1.7,28.6,2.4,24.5-19.9C654.9,98.5,656,90.8,656,83.3z"/>
	</g>
</g>
</svg>
