<?xml version="1.0" encoding="utf-8"?>
<!-- Generator: Adobe Illustrator 24.2.0, SVG Export Plug-In . SVG Version: 6.00 Build 0)  -->
<svg version="1.1" id="Layer_1" xmlns="http://www.w3.org/2000/svg" xmlns:xlink="http://www.w3.org/1999/xlink" x="0px" y="0px"
	 viewBox="0 0 864 864" style="enable-background:new 0 0 864 864;" xml:space="preserve">
<g>
	<path d="M613.3,605.7c19.2,20.1,38.7,41,58.8,61.2c2.5,2.5,8.5,2.2,12.8,2.1c14.5-0.3,24.5,7.4,25.8,20.6
		c1.6,15.6-7.2,26-22.3,26.5c-16.2,0.6-26.2-8.6-25-24.6c0.6-8.3-2.1-13.9-7.9-19.3c-17.1-16-33.9-32.1-50.5-48.6
		c-5.1-5.1-8.1-4.3-13.7-0.4c-17.1,11.9-34.7,23.1-52.6,33.8c-5.6,3.3-7.4,5.5-4.4,11.9c9,19.5,17.5,39.3,25.6,59.2
		c2.8,6.9,6.6,11,13.8,13c9,2.5,16,7.6,16.9,18.2c1,12-2.8,20.2-11.9,24.7c-9.6,4.8-22.2,3.1-29.2-3.8c-7.8-7.7-9.6-16.9-3.7-27.8
		c3.6-6.8,3.1-12.2,0.1-18.8c-8.9-19.6-17.3-39.4-25.4-59.2c-2.4-5.8-5.1-6.7-11.2-5.4c-21.3,4.5-42.7,8.4-64.2,11.9
		c-5.3,0.9-7.8,2.4-7.8,7.7c0,11.1-0.7,22.2,0.1,33.2c0.2,3.5,3.2,7.8,6.2,10.1c11.6,9.1,14.3,25.1,5.4,35.8
		c-8.6,10.3-26.8,11.1-36.4,1.4c-9.8-9.8-8.9-26.5,2.6-35.7c5.3-4.3,7.7-9,7.5-15.8c-0.3-9.8-0.2-19.7,0.1-29.5
		c0.1-5.1-2-6.4-6.9-7.2c-22.1-3.6-44.1-7.6-66-12.2c-5.7-1.2-8.3-0.2-10.6,5.1c-9.5,21.3-19.5,42.4-28.9,63.8
		c-1.3,2.9-0.7,6.9-0.2,10.3c0.4,3,2.1,5.7,3,8.7c3.2,11.3,0.2,21.1-7.8,26.2c-9.2,5.9-23.5,5.1-31.1-1.7
		c-7.2-6.4-10.5-20.3-4.6-28.8c3.6-5.3,10.4-9.3,16.6-11.7c5.7-2.2,9-5,11.4-10.6c8.8-20.6,17.9-41.1,27.2-61.5
		c2.4-5.2,1.8-7.6-3.4-10.9c-18.9-11.9-37.2-24.8-56-36.9c-2-1.3-6.8-1.1-8.3,0.4c-19.1,18.3-38,36.7-56.3,55.8
		c-3,3.2-3.8,9.5-3.8,14.4c0,15.5-8.9,25.1-24.1,25.1c-14.9,0-25.3-9.9-24.9-23.7c0.4-14.7,10.7-24.7,26.1-23.1
		c8,0.8,13.3-1.3,18.5-7c17.7-19.5,35.8-38.8,53.8-58.3c-12.7-18.5-27.4-39.9-43-62.5c-17.1,6.9-35.9,14.3-54.3,22.4
		c-2.2,1-3.3,5.5-4.2,8.6c-3.8,13.3-16.8,20.5-31,17c-12.6-3.2-19.2-16.1-15.3-30c3.4-12.3,16.6-20.4,29.1-14.6
		c13,6.1,23.3,2.5,34.6-2.6c9.8-4.4,19.8-8.4,29.8-12.4c5.1-2,6.6-4.3,5.2-10.3c-5-21.2-9.1-42.5-13.2-63.9
		c-0.9-4.9-2.6-6.9-7.6-6.9c-26.4,0.1-52.9-0.1-79.3,0.3c-3.4,0.1-6.8,3.1-10,5c-5.9,3.5-11.3,9-17.7,10.6
		c-10.8,2.7-22.3-4-26.1-12.9c-4.3-10.2-1.6-22.5,6.3-28.6c9.5-7.3,24-8.8,31.3,0.2c9.2,11.4,20.2,10.7,32.1,10.6
		c20.6-0.1,41.2-0.2,61.8,0c6.4,0.1,8.5-1.6,9.6-8.5c3.3-20.2,7.5-40.4,12.5-60.3c1.7-6.9,1-9.9-5.6-12.4
		c-15.9-5.8-31.6-12-47.2-18.5c-7.6-3.1-14.3-3.6-21.9,0.5c-9.1,4.9-18.7,3.7-26.8-2.8c-8.1-6.5-9.4-15.4-7-25.1
		c2.7-10.5,9.9-15.9,21.6-16.4c12.5-0.6,21.1,3.9,23.6,14.7c2.1,8.7,6.9,12.6,14.7,15.4c17.1,6.1,33.8,13.1,50.8,19.3
		c2.2,0.8,6.8-0.2,8-2c13.6-20.3,26.7-41,40.8-62.9c-5-5.2-11.5-12.1-18.2-18.7c-12-11.9-23.7-24.2-36.5-35.1
		c-5.4-4.6-13.2-7.8-20.3-8.7c-15.3-1.9-24.2-9.9-23.5-23.9c0.7-14.5,11.8-23.9,26.7-22.8c15,1.2,23.6,10.8,21.5,26.1
		c-1.1,8,1.1,13.1,6.8,18.5c17,16,33.7,32.4,50,49c5.3,5.5,8.3,4.7,14.3,0.4c17-12.1,34.6-23.2,52.4-34.1c5.3-3.2,6.6-5.6,4-11.4
		c-6.5-14.2-12.5-28.7-18.3-43.3c-2.2-5.4-5.1-8.8-11.2-9.2c-16-0.9-20.8-19.4-18-30.9c3.1-12.4,17.3-18.9,31.4-14.8
		c12.3,3.6,19.5,16.6,13.5,29.5c-5.3,11.3-2.9,20,2.2,29.9c5.6,10.9,10.3,22.3,15.1,33.6c2.2,5.2,4.7,6,10.5,4.7
		c21.6-4.7,43.3-8.6,65-12.3c4.8-0.8,7.1-2,7-7.2c-0.2-26.1,0.1-52.2-0.3-78.4c-0.1-3.1-3.1-7-5.8-9.1c-9.9-7.7-13.6-17.9-9.7-29.1
		c3.6-10.1,11.8-15.2,23.9-14.7c10.4,0.4,17.6,5.2,20.9,13.8c3.7,9.7,1.7,21-6.1,26.9c-6.6,4.9-8.2,10.5-8,18.1
		c0.4,23.3,0.4,46.7,0.1,70.1c-0.1,7.1,2.4,9,9.5,9.9c23.3,3.2,46.5,7.6,71.5,11.9c4.2-10.3,9.7-22.3,13.7-34.7
		c1-3.3-2.7-8.2-4.5-12.3c-5-10.7-4.3-20.2,2.2-27.5c6.4-7.2,17.2-9.6,27.1-6.1c9.5,3.3,14.2,10.3,15.2,20
		c1.1,10.6-2.6,19.6-12.1,22.6c-10.1,3.2-13.7,10.2-17,18.6c-2.8,6.8-5.7,13.6-8.9,20.2c-2.3,4.7-1.7,7.1,3.3,10.2
		c19,11.7,37.7,24,56.2,36.6c4.3,2.9,6.8,2.6,10.2-0.7c18.3-17.8,36.9-35.2,54.7-53.4c3.5-3.6,4.8-10.3,4.9-15.7
		c0.4-12.1,4.4-19.8,14.2-23.4c10.1-3.8,23.8-0.4,29.4,7.2c5.9,7.9,5.9,21-0.1,29.5c-4.6,6.6-10.9,9.8-19,8.6
		c-8.3-1.2-15,1.6-20.9,7.3c-17.7,17.5-35.6,34.8-53.4,52.2c-1,1-1.8,2.3-1.6,2c13.9,21.1,27.3,41.1,40.3,61.5
		c2.8,4.4,5.4,4.7,9.8,2.9c23.9-9.8,47.8-19.6,71.8-28.8c6.3-2.4,7.9-7,9.1-12.5c2.3-10.1,9.3-14.7,19-16
		c11.4-1.5,20.5,2.8,25.8,12.1c5.1,8.8,3.5,17.2-1.9,25.1c-6.4,9.4-20.8,12.7-32.4,6.5c-6.5-3.5-11.8-3-18.2-0.3
		c-21.5,9.1-43.1,17.9-64.9,26.3c-7.1,2.7-8.7,5.6-6.9,13.5c4.7,19.7,8.1,39.6,11.2,59.6c1,6.4,2.4,9.1,9.3,9
		c25.8-0.3,51.6-0.4,77.4,0c6.6,0.1,9.8-3.3,13.5-7.7c8.1-9.5,18.2-11.7,29.1-7c9.2,4,14.4,13.8,13.1,25.1
		c-1,9.1-5.5,15.5-14.2,18.6c-9.5,3.4-19.3,3.1-25.4-5c-7.1-9.4-15.8-9.7-25.9-9.6c-22.4,0.3-44.9,0.3-67.3,0
		c-6.7-0.1-8.5,2.1-9.5,8.7c-3.4,20.9-7.6,41.6-12.2,62.2c-1.1,4.9-0.6,7.4,3.9,9.3c15.3,6.4,30.4,13.3,45.9,19.3
		c3.1,1.2,7.4-0.4,11.1-1.1c5.9-1.1,11.8-3.8,17.6-3.4c12.1,0.8,21.1,11,21.5,22.6c0.4,11.3-7.9,21.4-19.4,23.6
		c-13.5,2.6-26-3.3-28.6-15.4c-1.9-8.7-6.7-12-14-14.8c-12.9-4.9-25.6-10.5-38.2-16c-4.6-2-7.6-1.8-10.6,3
		C639.1,567,625.8,586.8,613.3,605.7z M424,215.1c-39.4,0.2-78.1,12.1-114.7,32.8C221.6,297.6,176.9,402.3,203,497.8
		C235.5,616.7,362.8,690,477.6,662.5c61.6-14.8,111.5-45.2,146.5-98.8c39.4-60.4,50.2-125.1,25.4-193.3
		C614.9,275.2,529.5,216.6,424,215.1z"/>
	<path d="M513.9,600.8c-21.2-0.2-34.1-13-33.8-33.6c0.3-21,13-33.4,34.2-33.5c21.1-0.1,34.6,13.4,34.4,34.4
		C548.5,588.8,535.5,601,513.9,600.8z"/>
	<path d="M596.4,451c0,19-15.2,33.4-35.2,33.3c-20.2-0.1-33.4-13.3-33.5-33.5c-0.1-20.9,13.7-34.5,34.7-34.4
		C582.1,416.6,596.4,431.1,596.4,451z"/>
	<path d="M318.2,442.3c0.2,19.5-13.7,33.3-33.6,33.5c-20.6,0.1-34.2-12.6-34.5-32.4c-0.3-20,13.6-34.1,33.9-34.2
		C303.7,409,318,423,318.2,442.3z"/>
	<path d="M335,576.8c-14.9-0.2-24.4-9.5-24.3-24.1c0.1-14.1,10.4-23.8,25-23.6c15.2,0.1,24.1,9.2,23.9,24.2
		C359.4,568.3,350.2,577,335,576.8z"/>
	<path d="M454.9,409.1c-15.2,0.2-24.4-8.6-24.7-23.4c-0.2-12.8,9.9-22.4,23.7-22.6c15.2-0.2,25.2,8.9,25.2,22.9
		C479.2,399.6,469.3,408.9,454.9,409.1z"/>
	<path d="M332.7,360.2c-21.2-0.2-34.1-13-33.8-33.6c0.3-21,13-33.4,34.2-33.5c21.1-0.1,34.6,13.4,34.4,34.4
		C367.2,348.2,354.3,360.3,332.7,360.2z"/>
	<path d="M406.4,492.7c-15.2,0.2-24.4-8.6-24.7-23.4c-0.2-12.8,9.9-22.4,23.7-22.6c15.2-0.2,25.2,8.9,25.2,22.9
		C430.7,483.2,420.8,492.6,406.4,492.7z"/>
	<path d="M554.4,349.7c-15.2,0.2-24.4-8.6-24.7-23.4c-0.2-12.8,9.9-22.4,23.7-22.6c15.2-0.2,25.2,8.9,25.2,22.9
		C578.7,340.2,568.8,349.6,554.4,349.7z"/>
	<path d="M397.4,630.7c-15.2,0.2-24.4-8.6-24.7-23.4c-0.2-12.8,9.9-22.4,23.7-22.6c15.2-0.2,25.2,8.9,25.2,22.9
		C421.7,621.2,411.8,630.6,397.4,630.7z"/>
	<path d="M414.4,296.7c-15.2,0.2-24.4-8.6-24.7-23.4c-0.2-12.8,9.9-22.4,23.7-22.6c15.2-0.2,25.2,8.9,25.2,22.9
		C438.7,287.2,428.8,296.6,414.4,296.7z"/>
</g>
</svg>
