<svg id="Layer_1" data-name="Layer 1" xmlns="http://www.w3.org/2000/svg" viewBox="0 0 12.97 12.97"><defs><style>.cls-1{fill:#5d5a69;}</style></defs><title>icon_telephone1</title><path class="cls-1" d="M.39,1.52C-.7,3.17.61,6.61,3.49,9.5s6.34,4.2,8,3.11a.61.61,0,0,0,.17-.12l1.1-1.1a.94.94,0,0,0-.09-1.32l-2-2A.94.94,0,0,0,9.36,8L8.08,9.29a.41.41,0,0,1-.51,0A15.46,15.46,0,0,1,5.46,7.54,15.46,15.46,0,0,1,3.69,5.43a.41.41,0,0,1,0-.51L5,3.63A.94.94,0,0,0,4.9,2.31l-2-2A.94.94,0,0,0,1.61.25L.5,1.36A.61.61,0,0,0,.39,1.52Z" transform="translate(-0.01 -0.02)"/></svg>