<?xml version="1.0" encoding="utf-8"?>
<!-- Generator: Adobe Illustrator 21.0.0, SVG Export Plug-In . SVG Version: 6.00 Build 0)  -->
<svg version="1.1" id="Layer_1" xmlns="http://www.w3.org/2000/svg" xmlns:xlink="http://www.w3.org/1999/xlink" x="0px" y="0px"
	 viewBox="0 0 64 64" style="enable-background:new 0 0 64 64;" xml:space="preserve">
<style type="text/css">
	.st0{fill:#003399;}
</style>
<title>iphone-solid</title>
<path class="st0" d="M47,0H17c-1.7,0-3,1.3-3,3v58c0,1.7,1.3,3,3,3h30c1.7,0,3-1.3,3-3V3C50,1.3,48.7,0,47,0z M29,4h6
	c0.6,0,1,0.4,1,1s-0.4,1-1,1h-6c-0.6,0-1-0.4-1-1S28.4,4,29,4z M25,4c0.6,0,1,0.4,1,1s-0.4,1-1,1s-1-0.4-1-1S24.4,4,25,4z
	 M33.8,60.3c-1.1,1-2.7,0.9-3.7-0.1c-0.9-1-0.9-2.5,0-3.5c1.1-1,2.7-0.9,3.7,0.1C34.7,57.8,34.7,59.3,33.8,60.3z M45,53H19V10h26V53
	z"/>
</svg>
