<?xml version="1.0" encoding="utf-8"?>
<!-- Generator: Adobe Illustrator 16.0.0, SVG Export Plug-In . SVG Version: 6.00 Build 0)  -->
<!DOCTYPE svg PUBLIC "-//W3C//DTD SVG 1.1//EN" "http://www.w3.org/Graphics/SVG/1.1/DTD/svg11.dtd" [
	<!ENTITY ns_flows "http://ns.adobe.com/Flows/1.0/">
	<!ENTITY ns_extend "http://ns.adobe.com/Extensibility/1.0/">
	<!ENTITY ns_ai "http://ns.adobe.com/AdobeIllustrator/10.0/">
	<!ENTITY ns_graphs "http://ns.adobe.com/Graphs/1.0/">
]>
<svg version="1.1" id="Layer_1" xmlns:x="&ns_extend;" xmlns:i="&ns_ai;" xmlns:graph="&ns_graphs;"
	 xmlns="http://www.w3.org/2000/svg" xmlns:xlink="http://www.w3.org/1999/xlink" xmlns:a="http://ns.adobe.com/AdobeSVGViewerExtensions/3.0/"
	 x="0px" y="0px" width="864px" height="864px" viewBox="0 0 864 864" enable-background="new 0 0 864 864" xml:space="preserve">
<g>
	<path fill-rule="evenodd" clip-rule="evenodd" fill="#A7A9AC" d="M432.268,219.907c-117.105,0-212.038,94.933-212.038,212.037
		s94.933,212.038,212.038,212.038c117.105,0,212.037-94.934,212.037-212.038S549.373,219.907,432.268,219.907z M430.857,636.693
		c-112.552,0-203.795-91.242-203.795-203.794c0-112.553,91.243-203.796,203.795-203.796c112.554,0,203.797,91.243,203.797,203.796
		C634.654,545.451,543.411,636.693,430.857,636.693z"/>
	<polygon fill-rule="evenodd" clip-rule="evenodd" fill="#A7A9AC" points="701.425,481.116 164.758,481.449 163.348,378.298 
		700.015,376.965 	"/>
</g>
<g>
	<path fill-rule="evenodd" clip-rule="evenodd" fill="#ED1C24" d="M233.07,480.412c7.245,0,14.06,0.002,20.874,0
		c15.665-0.005,31.332,0.132,46.992-0.116c3.985-0.063,5.802,1.321,7.376,4.888c16.979,38.472,45.757,63.943,85.869,76.217
		c19.681,6.022,39.94,6.979,60.272,3.311c41.052-7.405,72.106-29.32,93.492-64.99c3.064-5.111,5.217-10.764,8.109-15.988
		c0.791-1.43,2.731-3.149,4.159-3.162c22.661-0.196,45.325-0.141,67.988-0.117c0.643,0,1.285,0.266,1.924,0.406
		c-12.752,68.73-81.944,150.919-187.651,156.165C328.121,642.699,248.883,558.396,233.07,480.412z"/>
	<path fill-rule="evenodd" clip-rule="evenodd" fill="#ED1C24" d="M628.728,377.748c-1.333,0.101-2.626,0.284-3.919,0.285
		c-21.988,0.021-43.979-0.058-65.967,0.104c-3.428,0.025-4.848-1.363-6.295-4.243c-18.596-37.008-47.965-61.248-87.984-71.587
		c-61.424-15.869-125.51,14.178-153.433,71.271c-1.615,3.302-3.368,4.589-7.1,4.558c-21.488-0.18-42.978-0.085-64.467-0.083
		c-1.479,0-2.959,0-4.513,0c14.642-67.132,82.911-143.411,182.083-149.831C533.75,220.674,611.325,304.569,628.728,377.748z"/>
</g>
<g>
	<path fill-rule="evenodd" clip-rule="evenodd" fill="#2E3192" stroke="#A7A9AC" stroke-miterlimit="10" d="M691.912,389.429
		c0,26.64,0,52.933,0,79.66c-173.467,0-346.787,0-520.462,0c0-26.446,0-52.832,0-79.66
		C344.755,389.429,518.07,389.429,691.912,389.429z M384.781,421.39c0.379-0.088,0.759-0.175,1.138-0.263
		c6.725,10.846,13.469,21.68,20.167,32.542c1.987,3.221,3.532,5.273,5.321,6.41l11.407-0.063c0-20.681,0-41.398,0-62.729
		l-8.854,0.036c-2.212-0.046-2.961,0.893-2.787,5.664c0.376,10.304-0.18,33.312-0.496,35.654
		c-7.464-12.227-14.282-23.405-21.108-34.578c-2.405-3.936-4.363-5.697-7.024-6.455l-9.228-0.707c0,20.723,0,42.698,0,63.565
		c3.929,0,7.499,0,11.463,0C384.781,447.224,384.781,434.307,384.781,421.39z M607.915,397.626c0,13.79,0,27.005,0,41.451
		c-1.677-2.499-2.704-3.922-3.621-5.413c-6.093-9.904-16.851-25.424-22.953-35.323l-11.13-0.212c0,20.71,0,41.426,0,62.407
		c3.79,0,7.206,0,11.463,0c0-13.271,0-26.328,0-39.385c8.45,12.122,15.917,24.297,23.536,36.374c0.86,1.364,1.645,3.347,3.087,3.542
		l11.357-0.289c0-21.394,0-42.108,0-63.151C615.811,397.626,612.245,397.626,607.915,397.626z M437.027,460.17
		c10.689,0,20.824,0.477,30.891-0.14c9.272-0.567,15.737-6.015,19.068-14.657c4.177-10.833,4.022-21.842-0.057-32.669
		c-2.381-6.322-6.594-11.464-13.198-13.447c-11.989-3.6-24.292-1.481-36.704-1.977C437.027,418.764,437.027,439.373,437.027,460.17z
		 M362.957,429.258c-0.039-23.635-17.131-37.268-40.065-31.954c-12.787,2.963-20.619,13.905-21.332,30.569
		c-1.171,27.414,19.521,38.007,40.705,32.494C355.33,456.967,362.982,444.978,362.957,429.258z M498.066,429.131
		c-0.183,24.884,18.143,36.601,40.313,31.449c12.612-2.93,20.001-13.541,21.129-29.336c1.723-24.131-16.675-39.674-40.124-33.899
		C506.258,400.578,498.072,412.785,498.066,429.131z M250.489,460.477c15.087,0,29.515,0,44.149,0c0-3.561,0-6.784,0-10.547
		c-10.581,0-20.828,0-31.733,0c0-17.58,0-34.627,0-51.548c-4.569,0-8.46,0-12.416,0C250.489,419.25,250.489,439.676,250.489,460.477
		z"/>
	<path fill-rule="evenodd" clip-rule="evenodd" fill="#2E3192" d="M449.874,408.505c5.187,0,9.816-0.238,14.411,0.059
		c6.064,0.393,10.508,4.156,11.018,9.767c0.722,7.945,0.116,16.095-0.76,24.065c-0.439,4.005-3.982,6.677-8.126,6.97
		c-5.391,0.383-10.829,0.094-16.543,0.094C449.874,435.843,449.874,422.291,449.874,408.505z"/>
	<path fill-rule="evenodd" clip-rule="evenodd" fill="#2E3192" d="M314.159,427.855c1.288-12.36,5.279-18.169,14.414-20.371
		c7.772-1.873,16.431,2.355,19.167,9.728c2.87,7.734,2.888,15.645-0.06,23.378c-2.485,6.516-9.049,10.594-16.074,10.395
		c-7.022-0.199-13.527-4.971-15.523-11.92C315.042,435.442,314.775,431.599,314.159,427.855z"/>
	<path fill-rule="evenodd" clip-rule="evenodd" fill="#2E3192" d="M543.252,444.073c-4.249,5.49-10.79,7.876-17.077,6.733
		c-7.046-1.279-12.997-6.574-14.007-13.822c-0.746-5.353-0.787-11.006,0.061-16.335c1.366-8.589,9.172-14.115,17.736-13.569
		c8.643,0.551,15.143,7.109,16.035,16.291C546.176,425.185,547.793,437.041,543.252,444.073z"/>
</g>
</svg>
