<?xml version="1.0" encoding="utf-8"?>
<!-- Generator: Adobe Illustrator 15.0.0, SVG Export Plug-In . SVG Version: 6.00 Build 0)  -->
<!DOCTYPE svg PUBLIC "-//W3C//DTD SVG 1.1//EN" "http://www.w3.org/Graphics/SVG/1.1/DTD/svg11.dtd">
<svg version="1.1" id="Layer_1" xmlns="http://www.w3.org/2000/svg" xmlns:xlink="http://www.w3.org/1999/xlink" x="0px" y="0px"
	 width="837.983px" height="642.019px" viewBox="-19.498 -20.893 837.983 642.019"
	 enable-background="new -19.498 -20.893 837.983 642.019" xml:space="preserve">
	 <defs><style>.post-office--logo{stroke-width:0; stroke:none;}
	 	@media (prefers-color-scheme: dark) {
	 		.post-office--logo{stroke-width:20; stroke:#FFFFFF;}
	 	}</style></defs>
<g>
	<defs>
		<path id="SVGID_1_" d="M-9.498,300.11c0,171.768,183.166,311.016,409.018,311.016c225.9,0,408.966-139.26,408.966-311.016
			C808.498,128.303,625.42-10.893,399.52-10.893C173.668-10.893-9.498,128.303-9.498,300.11"/>
	</defs>
	<clipPath id="SVGID_2_">
		<use xlink:href="#SVGID_1_"  overflow="visible"/>
	</clipPath>
	
		<linearGradient id="SVGID_3_" gradientUnits="userSpaceOnUse" x1="-235.7549" y1="150.0154" x2="-234.7145" y2="150.0154" gradientTransform="matrix(-270.6503 -580.4127 580.4127 -270.6503 -150337.7188 -95631.9766)">
		<stop  offset="0" style="stop-color:#BD2236"/>
		<stop  offset="0.125" style="stop-color:#BD2236"/>
		<stop  offset="0.455" style="stop-color:#D51D41"/>
		<stop  offset="0.6866" style="stop-color:#D81A40"/>
		<stop  offset="0.9315" style="stop-color:#E10A3C"/>
		<stop  offset="1" style="stop-color:#E4013A"/>
	</linearGradient>
	<polygon clip-path="url(#SVGID_2_)" fill="url(#SVGID_3_)" stroke="#FFFFFF" stroke-width="20" stroke-miterlimit="10" points="
		136.599,928.787 -244.482,100.207 662.401,-328.556 1043.482,500.026 	"/>
	<use xlink:href="#SVGID_1_"  overflow="visible" fill="none" stroke-miterlimit="10" class="post-office--logo"/>
</g>
<path fill="#FFFFFF" d="M479.363,368.755c0.073-38.491,29.401-67.428,66.976-67.489c14.951,0,28.386,2.949,39.372,11.049v18.304
	c-8.467-6.276-20.555-11.697-39.372-11.636c-28.716,0.122-47.277,20.213-47.118,49.772c0.208,28.838,19.772,49.748,47.118,49.748
	c17.056,0,26.905-3.132,39.372-11.647v18.328c-10.853,8.038-24.421,11.023-39.372,11.023
	C506.55,436.207,479.314,406.243,479.363,368.755"/>
<polygon fill="#FFFFFF" points="607.453,304.532 607.453,433.014 694.103,433.014 694.103,415.274 626.173,415.274 626.173,376.17 
	685.269,376.17 685.269,358.429 626.173,358.429 626.173,322.213 690.897,322.213 690.897,304.532 "/>
<rect x="439" y="304.532" fill="#FFFFFF" width="18.769" height="128.457"/>
<polygon fill="#FFFFFF" points="237.694,304.532 237.694,433.014 256.488,433.014 256.488,378.127 311.338,378.127 311.338,360.41 
	256.488,360.41 256.488,322.213 317.908,322.213 317.908,304.532 "/>
<path fill="#FFFFFF" d="M105.151,368.755c0-28.862,19.821-49.797,47.069-49.797c27.309,0,47.118,20.935,47.118,49.797
	c0,28.813-19.797,49.748-47.118,49.748C124.972,418.503,105.151,397.569,105.151,368.755 M85.342,368.755
	c0,38.492,28.752,67.465,66.877,67.465c38.198,0,66.951-28.961,66.951-67.465c0-38.455-28.752-67.489-66.951-67.489
	C114.083,301.266,85.342,330.3,85.342,368.755"/>
<polygon fill="#FFFFFF" points="337.864,304.532 337.864,433.014 356.645,433.014 356.645,378.127 411.508,378.127 411.508,360.41 
	356.645,360.41 356.645,322.213 418.09,322.213 418.09,304.532 "/>
<path fill="#FFFFFF" d="M443.563,169.653c0,28.557,20.163,34.503,37.953,40.144c13.165,4.233,25.706,8.564,25.706,20.738
	c0,12.749-13.85,19.21-25.706,19.369c-12.309,0.195-25.926-5.714-35.775-12.688l0.049,18.757
	c9.507,7.879,22.782,12.492,35.348,12.357c26.366-0.257,45.625-16.677,45.625-40.046c0-25.425-19.883-30.845-36.755-36.008
	c-14.241-4.344-27.211-8.564-27.211-22.623c0-6.864,5.665-18.549,24.544-18.549c9.764,0,16.896,1.42,29.34,9.238l1.297,0.893
	l0.049-18.817c-7.635-5.909-18.658-9.029-30.698-9.029C455.432,133.424,443.563,155.68,443.563,169.653"/>
<polygon fill="#FFFFFF" points="533.773,136.63 533.773,154.347 574.614,154.347 574.614,265.087 593.383,265.087 593.383,154.347 
	634.236,154.347 634.236,136.63 "/>
<path fill="#FFFFFF" d="M316.354,200.865c0-28.875,19.833-49.797,47.068-49.797c27.321,0,47.118,20.922,47.118,49.797
	c0,28.826-19.785,49.748-47.118,49.748C336.2,250.613,316.354,229.691,316.354,200.865 M296.545,200.865
	c0,38.492,28.753,67.465,66.877,67.465c38.198,0,66.951-28.973,66.951-67.465c0-38.442-28.753-67.489-66.951-67.489
	C325.298,133.375,296.545,162.422,296.545,200.865"/>
<path fill="#FFFFFF" d="M242.393,153.233c9.862,0,26.428,2.827,26.428,21.547c0,18.756-16.566,21.546-26.428,21.546h-23.699v-43.093
	H242.393L242.393,153.233z M199.937,136.63v128.457h18.757v-52.073h26.636c38.517,0,41.502-29.267,41.502-38.223
	c0-8.932-2.973-38.161-41.502-38.161H199.937z"/>
</svg>
