<?xml version="1.0" encoding="utf-8"?>
<!-- Generator: Adobe Illustrator 24.1.0, SVG Export Plug-In . SVG Version: 6.00 Build 0)  -->
<svg version="1.1"
	 id="svg9274" xmlns:cc="http://creativecommons.org/ns#" xmlns:dc="http://purl.org/dc/elements/1.1/" xmlns:inkscape="http://www.inkscape.org/namespaces/inkscape" xmlns:ns1="http://sozi.baierouge.fr" xmlns:rdf="http://www.w3.org/1999/02/22-rdf-syntax-ns#" xmlns:sodipodi="http://sodipodi.sourceforge.net/DTD/sodipodi-0.dtd"
	 xmlns="http://www.w3.org/2000/svg" xmlns:xlink="http://www.w3.org/1999/xlink" x="0px" y="0px" width="259.3px" height="435.9px"
	 viewBox="0 0 259.3 435.9" style="enable-background:new 0 0 259.3 435.9;" xml:space="preserve">
<style type="text/css">
	.st0{fill:#616161;}
</style>
<g id="layer1" transform="translate(-169.77 -382.33)" inkscape:groupmode="layer" inkscape:label="Layer 1">
	<g id="g9357" transform="translate(-256.58 42.426)">
		
			<path id="path9347" sodipodi:cx="278.54956" sodipodi:cy="347.52823" sodipodi:rx="37.123108" sodipodi:ry="37.123108" sodipodi:type="arc" class="st0" d="
			M609.8,377c0,20.5-16.6,37.1-37.1,37.1s-37.1-16.6-37.1-37.1s16.6-37.1,37.1-37.1S609.8,356.5,609.8,377L609.8,377z"/>
		<path id="path9349" inkscape:connector-curvature="0" sodipodi:nodetypes="cssssscsssssccssssscscsssssc" class="st0" d="
			M516.3,490.4c0,0-30.3,157.5-36.9,168.2c-5.6,9.1-49.2,80.6-49.2,80.6c-9.3,15.3-0.5,26.2,9.4,31.9c8.4,4.8,26.4,3.6,32.4-6.5
			c0,0,48.4-75.3,53.6-91.5c3.7-11.2,12.1-57.9,12.1-57.9s47,48.5,52.1,57.1c6.5,10.9,18.6,87.1,18.6,87.1
			c2.9,13.6,15.8,18,29.3,15.7c10.6-1.8,21.8-9,19.3-22.1c0,0-10.7-88.4-19.3-102.9c-10.2-17.3-65-76.4-65-76.4l15.7-70
			c0,0,10.1,20.4,17.1,29.3c8,10.1,58.6,39.3,58.6,39.3c4.6,3.1,15.1,1.4,19.3-6.4c3.3-6.3,3.2-16.5-4.3-21.4
			c0,0-41.7-26.2-51.4-34.3c-10.9-9-32.9-69.3-32.9-69.3c-6.8-9.4-16.2-19.7-32.1-20c-16.1-0.3-24.2,8.6-31.4,13.6
			c0,0-61.7,45.1-67.9,54.3c-6.1,9.2-17.1,78.6-17.1,78.6c-1.7,7.9,1.4,14.3,10.7,16.4c11.4,2.7,19.6-4.5,20.7-10
			c0,0,7.1-54.8,12.1-62.9C495.9,501.5,516.3,490.4,516.3,490.4L516.3,490.4z"/>
	</g>
</g>
</svg>
